<svg width="200" height="200" viewBox="0 0 200 200" xmlns="http://www.w3.org/2000/svg">
  <defs>
    <linearGradient id="grad5" x1="0%" y1="0%" x2="100%" y2="100%">
      <stop offset="0%" style="stop-color:#7C3AED;stop-opacity:1" />
      <stop offset="100%" style="stop-color:#06B6D4;stop-opacity:1" />
    </linearGradient>
    <filter id="blur5">
      <feGaussianBlur stdDeviation="2"/>
    </filter>
  </defs>

  <!-- Modern gradient background with rounded square -->
  <rect x="20" y="20" width="160" height="160" rx="40" ry="40" fill="url(#grad5)" stroke="none"/>

  <!-- Abstract connection elements -->
  <g fill="white" opacity="0.9">
    <!-- Main circles representing contacts -->
    <circle cx="70" cy="70" r="18"/>
    <circle cx="130" cy="70" r="18"/>
    <circle cx="130" cy="130" r="18"/>
    <circle cx="70" cy="130" r="18"/>

    <!-- Central connecting element -->
    <rect x="85" y="85" width="30" height="30" rx="8" ry="8" fill="rgba(255,255,255,0.95)"/>
  </g>

  <!-- Connection paths -->
  <g stroke="rgba(255,255,255,0.7)" stroke-width="4" fill="none" stroke-linecap="round">
    <path d="M82 82 L70 70"/>
    <path d="M118 82 L130 70"/>
    <path d="M118 118 L130 130"/>
    <path d="M82 118 L70 130"/>
  </g>

  <!-- Inner contact icons -->
  <g fill="#7C3AED">
    <!-- Contact dots -->
    <circle cx="70" cy="66" r="3"/>
    <path d="M62 76 Q70 72 78 76" stroke="#7C3AED" stroke-width="2" fill="none"/>

    <circle cx="130" cy="66" r="3"/>
    <path d="M122 76 Q130 72 138 76" stroke="#7C3AED" stroke-width="2" fill="none"/>

    <circle cx="130" cy="126" r="3"/>
    <path d="M122 136 Q130 132 138 136" stroke="#7C3AED" stroke-width="2" fill="none"/>

    <circle cx="70" cy="126" r="3"/>
    <path d="M62 136 Q70 132 78 136" stroke="#7C3AED" stroke-width="2" fill="none"/>
  </g>

  <!-- Central connection icon -->
  <g transform="translate(100,100)">
    <circle cx="0" cy="0" r="3" fill="#7C3AED"/>
    <g stroke="#7C3AED" stroke-width="2" fill="none">
      <circle cx="0" cy="0" r="8" opacity="0.6"/>
      <circle cx="0" cy="0" r="12" opacity="0.3"/>
    </g>
  </g>

  <!-- Modern pulse effects -->
  <g fill="none" stroke="rgba(255,255,255,0.2)" stroke-width="1">
    <rect x="30" y="30" width="140" height="140" rx="30" ry="30" filter="url(#blur5)"/>
    <rect x="40" y="40" width="120" height="120" rx="25" ry="25" filter="url(#blur5)"/>
  </g>
</svg>