<svg width="200" height="200" viewBox="0 0 200 200" xmlns="http://www.w3.org/2000/svg">
  <defs>
    <linearGradient id="grad7" x1="0%" y1="0%" x2="100%" y2="100%">
      <stop offset="0%" style="stop-color:#7C3AED;stop-opacity:1" />
      <stop offset="100%" style="stop-color:#06B6D4;stop-opacity:1" />
    </linearGradient>
    <linearGradient id="grad7white" x1="0%" y1="0%" x2="100%" y2="100%">
      <stop offset="0%" style="stop-color:#FFFFFF;stop-opacity:1" />
      <stop offset="100%" style="stop-color:#F8FAFC;stop-opacity:1" />
    </linearGradient>
  </defs>

  <!-- Background -->
  <circle cx="100" cy="100" r="95" fill="url(#grad7)" stroke="none"/>

  <!-- Infinity symbol representing endless connections -->
  <path d="M40 100 Q60 60, 100 100 Q140 140, 160 100 Q140 60, 100 100 Q60 140, 40 100 Z"
        fill="none" stroke="white" stroke-width="12" stroke-linecap="round"/>

  <!-- People dots on the infinity path -->
  <g fill="url(#grad7white)">
    <circle cx="70" cy="80" r="8"/>
    <circle cx="130" cy="120" r="8"/>
    <circle cx="130" cy="80" r="8"/>
    <circle cx="70" cy="120" r="8"/>
  </g>

  <!-- Central crossing point -->
  <circle cx="100" cy="100" r="12" fill="white"/>

  <!-- Person icons in the dots -->
  <g fill="#7C3AED">
    <circle cx="70" cy="77" r="2"/>
    <path d="M65 83 Q70 81 75 83" stroke="#7C3AED" stroke-width="1.5" fill="none"/>

    <circle cx="130" cy="117" r="2"/>
    <path d="M125 123 Q130 121 135 123" stroke="#7C3AED" stroke-width="1.5" fill="none"/>

    <circle cx="130" cy="77" r="2"/>
    <path d="M125 83 Q130 81 135 83" stroke="#7C3AED" stroke-width="1.5" fill="none"/>

    <circle cx="70" cy="117" r="2"/>
    <path d="M65 123 Q70 121 75 123" stroke="#7C3AED" stroke-width="1.5" fill="none"/>
  </g>

  <!-- Central connection icon -->
  <g transform="translate(100,100)">
    <circle cx="0" cy="-2" r="2" fill="#7C3AED"/>
    <path d="M-4 4 Q0 2 4 4" stroke="#7C3AED" stroke-width="1.5" fill="none"/>
  </g>

  <!-- Subtle flowing particles -->
  <g fill="rgba(255,255,255,0.4)">
    <circle cx="85" cy="90" r="2"/>
    <circle cx="115" cy="110" r="2"/>
    <circle cx="115" cy="90" r="2"/>
    <circle cx="85" cy="110" r="2"/>
  </g>

  <!-- Outer glow effect -->
  <circle cx="100" cy="100" r="85" fill="none" stroke="rgba(255,255,255,0.1)" stroke-width="2"/>
</svg>