<svg width="200" height="200" viewBox="0 0 200 200" xmlns="http://www.w3.org/2000/svg">
  <defs>
    <linearGradient id="grad4" x1="0%" y1="0%" x2="100%" y2="100%">
      <stop offset="0%" style="stop-color:#7C3AED;stop-opacity:1" />
      <stop offset="100%" style="stop-color:#06B6D4;stop-opacity:1" />
    </linearGradient>
    <linearGradient id="grad4alt" x1="0%" y1="0%" x2="100%" y2="100%">
      <stop offset="0%" style="stop-color:#06B6D4;stop-opacity:1" />
      <stop offset="100%" style="stop-color:#7C3AED;stop-opacity:1" />
    </linearGradient>
  </defs>

  <!-- Background hexagon -->
  <polygon points="100,20 165,60 165,140 100,180 35,140 35,60" fill="url(#grad4)" stroke="none"/>

  <!-- Inner geometric pattern -->
  <g fill="white" opacity="0.9">
    <!-- Central hexagon -->
    <polygon points="100,70 125,85 125,115 100,130 75,115 75,85"/>

    <!-- Surrounding smaller hexagons -->
    <polygon points="100,40 115,50 115,70 100,80 85,70 85,50" fill="url(#grad4alt)" opacity="0.8"/>
    <polygon points="140,80 155,90 155,110 140,120 125,110 125,90" fill="url(#grad4alt)" opacity="0.8"/>
    <polygon points="100,160 115,150 115,130 100,120 85,130 85,150" fill="url(#grad4alt)" opacity="0.8"/>
    <polygon points="60,80 75,90 75,110 60,120 45,110 45,90" fill="url(#grad4alt)" opacity="0.8"/>
  </g>

  <!-- Connection lines -->
  <g stroke="rgba(255,255,255,0.6)" stroke-width="3" fill="none" stroke-linecap="round">
    <line x1="100" y1="80" x2="100" y2="60"/>
    <line x1="115" y1="100" x2="135" y2="100"/>
    <line x1="100" y1="120" x2="100" y2="140"/>
    <line x1="85" y1="100" x2="65" y2="100"/>
  </g>

  <!-- Central connection symbol -->
  <circle cx="100" cy="100" r="6" fill="white"/>
  <g stroke="white" stroke-width="2" fill="none">
    <circle cx="100" cy="100" r="12" opacity="0.6"/>
    <circle cx="100" cy="100" r="18" opacity="0.3"/>
  </g>
</svg>