<svg width="200" height="200" viewBox="0 0 200 200" xmlns="http://www.w3.org/2000/svg">
  <defs>
    <linearGradient id="grad6" x1="0%" y1="0%" x2="100%" y2="100%">
      <stop offset="0%" style="stop-color:#7C3AED;stop-opacity:1" />
      <stop offset="100%" style="stop-color:#06B6D4;stop-opacity:1" />
    </linearGradient>
    <filter id="glow6">
      <feGaussianBlur stdDeviation="3" result="coloredBlur"/>
      <feMerge>
        <feMergeNode in="coloredBlur"/>
        <feMergeNode in="SourceGraphic"/>
      </feMerge>
    </filter>
  </defs>

  <!-- Background -->
  <circle cx="100" cy="100" r="95" fill="url(#grad6)" stroke="none"/>

  <!-- Large central chat bubble -->
  <path d="M50 70 L150 70 Q160 70 160 80 L160 120 Q160 130 150 130 L90 130 L70 150 L70 130 Q50 130 50 120 L50 80 Q50 70 60 70 Z"
        fill="white" filter="url(#glow6)"/>

  <!-- Message bubbles inside main bubble -->
  <g fill="#7C3AED">
    <rect x="60" y="85" width="30" height="8" rx="4" opacity="0.8"/>
    <rect x="60" y="100" width="45" height="8" rx="4" opacity="0.6"/>
    <rect x="105" y="115" width="35" height="8" rx="4" opacity="0.8"/>
  </g>

  <!-- Smaller chat bubbles around the main one -->
  <g fill="rgba(255,255,255,0.9)">
    <!-- Top bubble -->
    <path d="M85 45 L115 45 Q120 45 120 50 L120 60 Q120 65 115 65 L95 65 L85 70 L85 65 Q80 65 80 60 L80 50 Q80 45 85 45 Z"/>
    <circle cx="95" cy="55" r="2" fill="#06B6D4"/>
    <circle cx="105" cy="55" r="2" fill="#06B6D4"/>

    <!-- Right bubble -->
    <path d="M155 85 L185 85 Q190 85 190 90 L190 100 Q190 105 185 105 L165 105 L155 110 L155 105 Q150 105 150 100 L150 90 Q150 85 155 85 Z"/>
    <circle cx="165" cy="95" r="2" fill="#06B6D4"/>
    <circle cx="175" cy="95" r="2" fill="#06B6D4"/>

    <!-- Left bubble -->
    <path d="M15 85 L45 85 Q50 85 50 90 L50 100 Q50 105 45 105 L25 105 L15 110 L15 105 Q10 105 10 100 L10 90 Q10 85 15 85 Z"/>
    <circle cx="25" cy="95" r="2" fill="#06B6D4"/>
    <circle cx="35" cy="95" r="2" fill="#06B6D4"/>

    <!-- Bottom bubble -->
    <path d="M85 155 L115 155 Q120 155 120 160 L120 170 Q120 175 115 175 L95 175 L85 180 L85 175 Q80 175 80 170 L80 160 Q80 155 85 155 Z"/>
    <circle cx="95" cy="165" r="2" fill="#06B6D4"/>
    <circle cx="105" cy="165" r="2" fill="#06B6D4"/>
  </g>

  <!-- Connection lines from center to outer bubbles -->
  <g stroke="rgba(255,255,255,0.5)" stroke-width="2" fill="none" stroke-dasharray="5,5">
    <line x1="100" y1="70" x2="100" y2="55"/>
    <line x1="150" y1="100" x2="165" y2="95"/>
    <line x1="100" y1="130" x2="100" y2="165"/>
    <line x1="70" y1="100" x2="35" y2="95"/>
  </g>

  <!-- Central connection indicator -->
  <circle cx="100" cy="100" r="4" fill="#7C3AED"/>
</svg>