<svg width="200" height="200" viewBox="0 0 200 200" xmlns="http://www.w3.org/2000/svg">
  <defs>
    <linearGradient id="grad2" x1="0%" y1="0%" x2="100%" y2="100%">
      <stop offset="0%" style="stop-color:#7C3AED;stop-opacity:1" />
      <stop offset="100%" style="stop-color:#06B6D4;stop-opacity:1" />
    </linearGradient>
    <filter id="shadow2">
      <feDropShadow dx="2" dy="2" stdDeviation="4" color="rgba(124,58,237,0.3)"/>
    </filter>
  </defs>

  <!-- Background -->
  <circle cx="100" cy="100" r="95" fill="url(#grad2)" stroke="none"/>

  <!-- Network lines -->
  <g stroke="rgba(255,255,255,0.4)" stroke-width="2" fill="none">
    <line x1="100" y1="100" x2="100" y2="40"/>
    <line x1="100" y1="100" x2="160" y2="100"/>
    <line x1="100" y1="100" x2="100" y2="160"/>
    <line x1="100" y1="100" x2="40" y2="100"/>
    <line x1="100" y1="100" x2="135" y2="65"/>
    <line x1="100" y1="100" x2="135" y2="135"/>
    <line x1="100" y1="100" x2="65" y2="135"/>
    <line x1="100" y1="100" x2="65" y2="65"/>
  </g>

  <!-- Network nodes -->
  <circle cx="100" cy="40" r="12" fill="white" filter="url(#shadow2)"/>
  <circle cx="160" cy="100" r="12" fill="white" filter="url(#shadow2)"/>
  <circle cx="100" cy="160" r="12" fill="white" filter="url(#shadow2)"/>
  <circle cx="40" cy="100" r="12" fill="white" filter="url(#shadow2)"/>
  <circle cx="135" cy="65" r="10" fill="white" filter="url(#shadow2)"/>
  <circle cx="135" cy="135" r="10" fill="white" filter="url(#shadow2)"/>
  <circle cx="65" cy="135" r="10" fill="white" filter="url(#shadow2)"/>
  <circle cx="65" cy="65" r="10" fill="white" filter="url(#shadow2)"/>

  <!-- Central hub -->
  <circle cx="100" cy="100" r="18" fill="white" filter="url(#shadow2)"/>

  <!-- Central icon - simplified user -->
  <circle cx="100" cy="95" r="4" fill="#7C3AED"/>
  <path d="M92 105 Q100 102 108 105" stroke="#7C3AED" stroke-width="2" fill="none" stroke-linecap="round"/>
</svg>